<svg width="18" height="15" viewBox="0 0 18 15" fill="none" xmlns="http://www.w3.org/2000/svg">
<path d="M16.1497 3.78694C16.1612 3.94683 16.1612 4.10675 16.1612 4.26664C16.1612 9.14352 12.4493 14.7628 5.66497 14.7628C3.57486 14.7628 1.63325 14.1575 0 13.1068C0.296965 13.141 0.582469 13.1524 0.890859 13.1524C2.61545 13.1524 4.20303 12.57 5.4708 11.5763C3.84898 11.542 2.48984 10.4798 2.02155 9.01791C2.25 9.05215 2.47841 9.075 2.71828 9.075C3.04949 9.075 3.38073 9.0293 3.68909 8.94939C1.99874 8.60672 0.730934 7.12196 0.730934 5.32882V5.28315C1.22203 5.55727 1.79314 5.72858 2.39843 5.7514C1.40477 5.08895 0.753785 3.95825 0.753785 2.67906C0.753785 1.99379 0.936492 1.36562 1.25631 0.817394C3.0723 3.05597 5.80201 4.51787 8.86289 4.6778C8.8058 4.40368 8.77152 4.11818 8.77152 3.83264C8.77152 1.79963 10.4162 0.143555 12.4606 0.143555C13.5228 0.143555 14.4822 0.588984 15.156 1.30853C15.9898 1.14864 16.7893 0.840246 17.4974 0.417668C17.2233 1.27429 16.6408 1.99383 15.8756 2.45065C16.618 2.37074 17.3375 2.16511 17.9999 1.87961C17.4975 2.61054 16.8693 3.26153 16.1497 3.78694Z" fill="white"/>
</svg>
